# xmcd
#
# Track frame offsets: 
#        200
#        24125
#        51575
#        75650
#        109700
#        134900
#        158000
#        182675
#
# Disc length: 2772 seconds
#
# Revision: 0
# Processed by: cddbd v1.5.2PL0 Copyright (c) Steve Scherf et al.
# Submitted via: ExactAudioCopy v1.0b1
#
DISCID=630ad208
DTITLE=Euphoreon - Euphoreon
DYEAR=2011
DGENRE=Melodic Death Metal
TTITLE0=Every Cloud Has A Silver Lining
TTITLE1=Before The Blackened Sky
TTITLE2=Forever Being
TTITLE3=Eleventh Heaven
TTITLE4=Where Dead Skies Dwell
TTITLE5=From The Netherworld
TTITLE6=Starnight Rider
TTITLE7=Road To Redemption
EXTD=
EXTT0=
EXTT1=
EXTT2=
EXTT3=
EXTT4=
EXTT5=
EXTT6=
EXTT7=
PLAYORDER=
